HIERARCHY
ROOT Hips
{
  OFFSET 43.0842 91.1655 101.099
  CHANNELS 6 Xposition Yposition Zposition Zrotation Xrotation Yrotation
  JOINT LeftUpLeg
  {
    OFFSET 8.64259 1.95398 -2.38835
    CHANNELS 3 Zrotation Xrotation Yrotation
    JOINT LeftLeg
    {
      OFFSET 43.7702 0 0
      CHANNELS 3 Zrotation Xrotation Yrotation
      JOINT LeftFoot
      {
        OFFSET 40.6238 0 0
        CHANNELS 3 Zrotation Xrotation Yrotation
        JOINT LeftToeBase
        {
          OFFSET 12.7242 0 0
          CHANNELS 3 Zrotation Xrotation Yrotation
          End Site
          {
            OFFSET 0 0 0
          }
        }
      }
    }
  }
  JOINT RightUpLeg
  {
    OFFSET -8.2249 1.95398 -2.59336
    CHANNELS 3 Zrotation Xrotation Yrotation
    JOINT RightLeg
    {
      OFFSET 43.5653 0 0
      CHANNELS 3 Zrotation Xrotation Yrotation
      JOINT RightFoot
      {
        OFFSET 40.6238 0 0
        CHANNELS 3 Zrotation Xrotation Yrotation
        JOINT RightToeBase
        {
          OFFSET 12.7242 0 0
          CHANNELS 3 Zrotation Xrotation Yrotation
          End Site
          {
            OFFSET 0 0 0
          }
        }
      }
    }
  }
  JOINT Spine
  {
    OFFSET 0.165834 0.87714 6.61349
    CHANNELS 3 Zrotation Xrotation Yrotation
    JOINT Spine1
    {
      OFFSET 7.38963 1.71661e-005 0
      CHANNELS 3 Zrotation Xrotation Yrotation
      JOINT Spine2
      {
        OFFSET 11.9445 1.14441e-005 0
        CHANNELS 3 Zrotation Xrotation Yrotation
        JOINT Spine3
        {
          OFFSET 14.7254 4.19617e-005 0
          CHANNELS 3 Zrotation Xrotation Yrotation
          JOINT Spine4
          {
            OFFSET 10.9679 0 0
            CHANNELS 3 Zrotation Xrotation Yrotation
            JOINT RightShoulder
            {
              OFFSET 2.46616 -1.6653 3.69651
              CHANNELS 3 Zrotation Xrotation Yrotation
              JOINT RightArm
              {
                OFFSET 13.0012 0 0
                CHANNELS 3 Zrotation Xrotation Yrotation
                JOINT RightForeArm
                {
                  OFFSET 28.7848 1.52588e-005 0
                  CHANNELS 3 Zrotation Xrotation Yrotation
                  JOINT RightHand
                  {
                    OFFSET 26.5688 1.52588e-005 0
                    CHANNELS 3 Zrotation Xrotation Yrotation
                    End Site
                    {
                      OFFSET 0 0 0
                    }
                  }
                }
              }
            }
            JOINT LeftShoulder
            {
              OFFSET 2.38034 -1.29275 -3.7523
              CHANNELS 3 Zrotation Xrotation Yrotation
              JOINT LeftArm
              {
                OFFSET 16.3182 6.10351e-005 0
                CHANNELS 3 Zrotation Xrotation Yrotation
                JOINT LeftForeArm
                {
                  OFFSET 27.0901 0 0
                  CHANNELS 3 Zrotation Xrotation Yrotation
                  JOINT LeftHand
                  {
                    OFFSET 24.5451 1.52588e-005 0
                    CHANNELS 3 Zrotation Xrotation Yrotation
                    End Site
                    {
                      OFFSET 0 0 0
                    }
                  }
                }
              }
            }
            JOINT Neck
            {
              OFFSET 5.0226 -0.0266342 0
              CHANNELS 3 Zrotation Xrotation Yrotation
              JOINT Head
              {
                OFFSET 6.69364 2.86102e-005 0
                CHANNELS 3 Zrotation Xrotation Yrotation
                End Site
                {
                  OFFSET 0 0 0
                }
              }
            }
          }
        }
      }
    }
  }
}
MOTION
Frames:	14
Frame Time:	0.0333333
84.9883 94.0643 64.4379 58.7614 27.2691 156.721 165.575 62.0069 141.709 -41.3686 21.7812 -2.10144 67.0485 8.27868 20.6806 31.9982 0.326564 6.46428 163.441 6.53507 65.3479 -68.8363 4.49727 -9.83358 74.6133 -15.5786 -20.9155 48.8684 -9.5488 -9.24191 1.69113 7.42033 -91.0477 12.0609 2.86752 -2.40207 0.39069 2.75905 -2.52594 -22.1621 3.45668 -1.4288 -2.1495 3.45667 -1.4288 91.038 -55.5275 -98.1173 14.5962 -11.2201 12.307 26.8371 12.3365 -83.4556 -30.6798 -9.53566 15.3189 -92.982 -51.8552 74.7772 -15.8085 21.2524 -0.343178 18.4893 -10.0099 -88.8595 26.4735 3.43437 2.72164 -8.5619 -22.2979 -31.9696 4.9424 -21.4925 -18.0983 
84.5578 93.5545 63.8221 62.9742 27.6588 151.537 172.491 59.4428 136.065 -43.0687 24.676 -3.13001 66.9293 8.43308 24.2874 32.4297 0.604342 7.00727 165.894 16.2847 68.1523 -84.651 6.25844 -9.16478 74.7185 -15.1138 -22.2697 48.1755 -9.12847 -9.18156 0.817467 7.46278 -90.9361 11.9554 1.18418 -1.99549 0.283251 1.09523 -2.04567 -22.2474 1.72907 -1.54749 -2.23474 1.72908 -1.5475 91.6228 -57.973 -96.8382 12.8662 -3.2885 17.6802 23.2381 6.2117 -87.8015 -33.0319 -11.9054 23.1324 -95.3828 -53.1318 71.6492 -10.7313 26.7754 -13.5472 17.9192 -8.17609 -89.8438 26.1225 3.38093 2.88496 -13.5881 -18.1637 -32.7538 5.1296 -18.8581 -17.4612 
84.1629 93.4083 63.1145 68.7117 27.4414 146.091 179.138 55.3791 131.916 -43.665 27.1041 -4.35843 66.53 7.7842 27.3481 33.0115 1.19268 7.41303 164.368 25.5813 74.5174 -97.1253 7.50444 -7.90078 73.3939 -12.8652 -24.744 47.6955 -9.0859 -7.48693 -0.0732843 7.56092 -90.7884 11.7458 -0.515964 -1.51696 0.0740755 -0.582213 -1.4928 -22.454 -0.0362779 -1.60187 -2.44136 -0.0362641 -1.60187 93.0355 -58.5262 -94.7703 9.51236 1.78285 23.5487 13.9229 -0.798518 -90.8795 -32.1626 -11.337 22.1995 -93.6309 -51.1803 73.6483 -5.74187 28.3975 -27.9877 18.554 -6.24393 -92.0713 25.8008 3.35445 3.65621 -17.0516 -14.5987 -32.763 4.38101 -16.1579 -15.1188 
83.7042 93.5647 61.8778 75.6987 26.4986 138.884 -173.509 48.6349 126.665 -42.6285 25.3332 -5.88386 66.4523 7.4498 28.8942 33.261 1.51391 7.47778 158.444 32.5912 83.4979 -103.511 9.09686 -7.02927 73.5977 -12.5584 -21.905 47.209 -8.67903 -8.18274 -0.828826 7.67777 -90.4897 11.512 -1.8779 -0.783116 -0.157803 -1.91053 -0.699693 -22.6989 -1.5557 -1.31135 -2.68625 -1.5557 -1.31136 94.2191 -56.7286 -93.3572 5.68387 3.61243 28.7443 6.57061 -1.19895 -96.6826 -30.4139 -8.82055 11.7064 -90.4219 -46.8355 77.3792 -4.90922 24.6474 -39.0959 18.3099 -2.77611 -96.1861 26.5237 3.50621 4.32095 -19.8428 -11.869 -30.3113 4.08605 -14.0461 -13.5384 
83.9581 94.2796 59.9585 83.7056 22.6465 131.042 -166.894 38.4493 122.66 -38.9662 21.054 -8.1595 66.3968 6.62948 29.7197 33.2398 1.63629 7.22439 153.642 34.7588 93.2375 -102.248 6.95974 -5.60901 73.2959 -11.7047 -15.2568 45.1543 -7.32438 -8.76676 -1.07654 7.70978 -90.1757 11.4563 -2.22399 -0.12507 -0.212711 -2.22731 -0.0270185 -22.7619 -2.08355 -0.787989 -2.74924 -2.08354 -0.787981 95.0046 -53.3512 -92.6599 0.257042 5.74424 31.9761 -1.49953 -1.38761 -100.729 -26.1429 -6.5213 6.65216 -88.2997 -43.413 79.9568 -6.73998 19.9304 -45.573 15.6066 2.15415 -99.7146 27.6043 3.71008 4.42752 -23.728 -10.1012 -26.4786 5.04393 -13.242 -13.4591 
84.7003 95.6067 57.3272 91.362 16.9261 123.727 -162.576 25.7453 119.179 -34.2054 16.3726 -9.67261 65.7602 3.70644 29.2258 33.4104 1.61003 7.66113 153.779 31.6778 99.4718 -93.4406 1.30325 -2.45959 66.5174 -4.70221 -6.99807 43.2314 -6.43931 -6.99329 -0.924102 7.76167 -89.9454 11.3535 -1.8134 0.291212 -0.316217 -1.7988 0.370768 -22.8614 -1.81706 -0.267434 -2.84874 -1.81705 -0.26743 95.8028 -48.9211 -92.0141 -5.51909 8.27098 31.8749 -7.43129 -0.89129 -103.742 -22.3584 -5.40291 7.86647 -87.7629 -42.6323 80.6667 -6.72267 18.4083 -49.5417 14.9626 2.31365 -102.627 26.5938 3.53312 4.66374 -27.2965 -9.63399 -22.4737 6.40476 -13.4244 -13.7668 
85.4511 97.082 54.5163 96.4977 12.827 117.718 -161.233 16.5353 114.459 -33.6554 14.8054 -8.69487 63.362 -1.08337 24.5808 34.6552 1.24442 11.3301 156.095 25.6089 100.029 -79.843 -2.60645 2.46751 57.9751 1.69694 3.43343 36.2054 -3.63741 -2.10858 -0.910169 7.88034 -89.7433 11.1186 -1.69248 0.675851 -0.551463 -1.66111 0.749702 -23.0953 -1.81731 0.135795 -3.08268 -1.81736 0.135786 95.9484 -45.1313 -92.2833 -11.1524 12.3256 29.0452 -8.1739 -1.58088 -104.64 -19.4893 -4.38727 6.58374 -87.6167 -41.83 80.7411 -6.74436 18.1925 -52.86 15.6718 1.62775 -104.222 24.3868 3.12678 4.73559 -30.4011 -9.76945 -19.5749 8.28069 -14.0907 -13.9081 
86.1286 98.1619 52.6626 98.8291 9.91485 112.703 -161.455 14.8771 110.61 -40.6321 18.9727 -6.20422 58.9662 -6.64133 16.4545 34.6859 -0.842949 14.5314 159.447 18.8913 99.2296 -64.1609 -3.72247 8.03338 53.5257 4.795 8.86091 28.3152 -0.342517 1.74911 -0.9724 7.92674 -89.4924 11.0284 -1.70043 1.17392 -0.642023 -1.64711 1.2476 -23.1846 -1.97457 0.608462 -3.17194 -1.9746 0.60846 95.85 -43.8399 -92.6218 -16.7873 20.3238 25.0843 -10.093 -3.65622 -105.15 -17.9791 -3.88221 6.76367 -87.6966 -40.7629 80.3816 -6.77204 17.2206 -56.8864 13.5567 4.98931 -104.492 24.1977 3.0801 4.35119 -32.4596 -10.3503 -19.1605 9.25857 -15.0919 -13.583 
86.6191 98.4068 51.2837 99.4513 6.73298 107.562 -163.475 16.5864 106.819 -50.5992 26.1867 -3.46936 56.4 -8.79356 10.4588 31.4641 -4.88632 12.7593 164.426 13.7206 98.1189 -49.2391 -2.22426 10.9119 50.3952 7.98791 9.5268 23.7445 1.68175 2.89102 -0.985651 7.80466 -89.1429 11.2775 -1.56249 1.85803 -0.393945 -1.4792 1.92496 -22.9309 -2.04862 1.30257 -2.91824 -2.04862 1.30256 96.4034 -44.4255 -91.6245 -18.8571 30.1278 20.2782 -13.274 -5.27054 -106.909 -18.0536 -3.9478 7.99526 -88.1159 -40.2454 79.5644 -5.60164 16.6002 -61.0251 12.208 7.55402 -103.258 22.6691 2.80873 2.87904 -33.217 -11.5672 -18.8661 8.41134 -16.3586 -14.0217 
86.8528 97.6815 49.4187 100.068 2.26562 102.536 -165.366 16.9953 104.114 -56.7303 31.7059 -1.77567 57.4256 -7.22762 11.1336 30.7854 -4.55184 10.8711 169.371 9.43963 97.4755 -38.8301 1.15217 9.12775 50.5607 9.01093 7.73822 24.4131 2.56281 -0.372236 -0.927258 7.66822 -88.8402 11.5456 -1.30193 2.44573 -0.127061 -1.19307 2.50062 -22.6547 -1.97665 1.94163 -2.64206 -1.97666 1.94162 96.6476 -46.7507 -90.9324 -18.2636 39.909 13.6253 -15.6113 -5.53613 -109.543 -17.1427 -3.62601 7.58399 -88.2919 -39.9844 79.2079 -4.74841 16.2632 -64.2945 11.091 8.80492 -102.359 21.3076 2.56095 2.74031 -32.5924 -13.4459 -17.1629 7.42741 -17.8208 -14.8038 
86.9653 96.3577 47.2363 100.977 -3.5259 98.6106 -165.718 16.0661 103.918 -57.7557 31.4679 -1.19333 58.5694 -5.87693 14.0807 32.9987 -1.35626 11.3259 172.703 6.10053 95.8739 -33.8013 0.698499 4.80038 56.8198 4.59899 3.6749 30.7387 1.03786 -6.02781 -0.81914 7.66848 -88.7275 11.5417 -1.03427 2.64144 -0.131602 -0.917055 2.68436 -22.6538 -1.78014 2.20881 -2.6412 -1.78012 2.20881 96.1593 -49.0402 -91.4422 -13.8423 49.3512 2.34804 -17.5285 -6.61709 -111.717 -16.3254 -3.35259 7.66851 -88.72 -40.8898 78.7012 -4.67239 14.0337 -66.9172 9.73455 10.1593 -101.519 19.0881 2.25154 1.74809 -29.2344 -15.8173 -13.1508 5.66398 -19.0802 -16.6149 
86.8831 94.8258 45.0809 100.989 -9.04932 95.3719 -165.594 15.3546 105.39 -55.4583 26.4393 -1.0003 58.2295 -6.52242 13.7349 32.5612 -2.60062 12.096 174.215 5.87112 93.8541 -32.6204 0.555889 1.0722 63.1102 -1.03575 0.118037 33.4942 -1.76937 -2.7774 -0.724754 7.63718 -88.7805 11.6006 -0.87065 2.51909 -0.0725833 -0.75897 2.55493 -22.5948 -1.58732 2.14124 -2.58216 -1.5873 2.14125 95.2831 -51.3939 -92.4939 -4.94998 56.0624 -13.5086 -17.8947 -9.02086 -111.999 -16.9997 -3.57837 7.61329 -90.0006 -43.4535 77.2233 -3.32726 11.228 -69.4253 11.0035 10.8782 -100.217 17.5455 2.02428 0.467971 -23.814 -18.1586 -8.69708 1.0183 -19.8286 -17.8967 
86.6314 93.0683 42.8086 99.4942 -14.6027 93.9387 -165.893 16.0573 108.409 -52.4792 22.5398 -0.801696 57.8467 -7.92502 13.4957 31.3225 -5.36859 13.1107 174.485 8.52311 92.4208 -32.5964 2.17546 -0.250414 66.932 -5.32531 -1.47226 34.9404 -3.82431 1.40317 -0.681272 7.51147 -89.157 11.863 -0.957776 1.78821 0.191181 -0.878165 1.82861 -22.3407 -1.45091 1.41778 -2.328 -1.45091 1.41777 93.968 -52.6863 -94.304 5.4436 58.1247 -29.2783 -18.5132 -10.8141 -109.613 -17.417 -3.70259 6.92879 -92.1385 -46.7997 74.72 -1.40123 9.21802 -70.4932 10.7112 10.6724 -99.1096 16.8212 1.90293 0.90582 -19.7308 -19.6158 -4.9983 -2.33466 -20.2894 -17.6941 
86.5926 91.4906 40.479 98.4462 -19.9231 93.6076 -165.883 15.4799 111.041 -49.3763 20.6132 -0.582153 57.7084 -8.39886 13.214 31.0899 -6.55547 14.1187 173.597 10.8039 90.4185 -32.5232 2.77623 -0.14055 71.4667 -10.1876 -0.425367 35.1746 -3.8952 1.23575 -0.689159 7.48355 -89.5507 11.9097 -1.15889 1.01823 0.238818 -1.11296 1.06824 -22.2989 -1.41132 0.62284 -2.28623 -1.41131 0.622833 92.8381 -52.1718 -96.0797 14.5247 56.3287 -41.314 -19.4935 -11.0451 -105.471 -16.7202 -3.44656 5.75602 -93.3711 -48.1672 73.2076 -2.62674 6.67849 -70.4907 10.2035 12.1621 -98.9347 15.5868 1.81856 -1.05692 -17.4685 -19.4903 -2.53506 -2.93346 -19.9081 -17.5013 
